<svg width="63" height="26" fill="none" xmlns="http://www.w3.org/2000/svg"><path fill-rule="evenodd" clip-rule="evenodd" d="M23.405 19.89c0 .683-.258 1.336-.728 1.839l-.075-.069.081.075c-2.47 2.61-5.962 4.107-9.581 4.107C5.878 25.842 0 20.046 0 12.922 0 5.795 5.878 0 13.102 0c3.446 0 6.7 1.309 9.163 3.685.435.426.942 1.214.942 2.034 0 1.491-1.23 2.704-2.742 2.704a2.765 2.765 0 01-1.745-.62h-.002a.208.208 0 00-.012-.01c-.012-.01-.023-.02-.036-.029l.003-.004c-1.444-1.436-3.565-2.327-5.553-2.327-4.177 0-7.576 3.35-7.576 7.47 0 4.12 3.399 7.472 7.576 7.472 2.382 0 4.656-1.429 5.88-2.653l.05.05-.046-.054c.458-.39.92-.541 1.65-.541 1.517 0 2.75 1.216 2.75 2.713zm3.034-6.924c0 7.128 5.878 12.927 13.106 12.927 7.226 0 13.106-5.799 13.106-12.927 0-7.126-5.88-12.925-13.106-12.925-7.228 0-13.106 5.799-13.106 12.925zm5.472-.018c0-4.14 3.416-7.509 7.614-7.509 4.199 0 7.615 3.368 7.615 7.51 0 4.14-3.416 7.508-7.615 7.508-4.198 0-7.614-3.368-7.614-7.509zM59.568 26h-.489c-1.377 0-2.486-1.224-2.486-2.237l-.018-21.467c0-1.007 1.156-2.238 2.504-2.238h.49c1.376 0 2.484 1.224 2.484 2.238l.019 21.467c0 1.006-1.156 2.237-2.504 2.237z" fill="#fff"/><mask id="a" style="mask-type:alpha" maskUnits="userSpaceOnUse" x="0" y="0" width="63" height="26"><path fill-rule="evenodd" clip-rule="evenodd" d="M23.405 19.89c0 .683-.258 1.336-.728 1.839l-.075-.069.081.075c-2.47 2.61-5.962 4.107-9.581 4.107C5.878 25.842 0 20.046 0 12.922 0 5.795 5.878 0 13.102 0c3.446 0 6.7 1.309 9.163 3.685.435.426.942 1.214.942 2.034 0 1.491-1.23 2.704-2.742 2.704a2.765 2.765 0 01-1.745-.62h-.002a.208.208 0 00-.012-.01c-.012-.01-.023-.02-.036-.029l.003-.004c-1.444-1.436-3.565-2.327-5.553-2.327-4.177 0-7.576 3.35-7.576 7.47 0 4.12 3.399 7.472 7.576 7.472 2.382 0 4.656-1.429 5.88-2.653l.05.05-.046-.054c.458-.39.92-.541 1.65-.541 1.517 0 2.75 1.216 2.75 2.713zm3.034-6.924c0 7.128 5.878 12.927 13.106 12.927 7.226 0 13.106-5.799 13.106-12.927 0-7.126-5.88-12.925-13.106-12.925-7.228 0-13.106 5.799-13.106 12.925zm5.472-.018c0-4.14 3.416-7.509 7.614-7.509 4.199 0 7.615 3.368 7.615 7.51 0 4.14-3.416 7.508-7.615 7.508-4.198 0-7.614-3.368-7.614-7.509zM59.568 26h-.489c-1.377 0-2.486-1.224-2.486-2.237l-.018-21.467c0-1.007 1.156-2.238 2.504-2.238h.49c1.376 0 2.484 1.224 2.484 2.238l.019 21.467c0 1.006-1.156 2.237-2.504 2.237z" fill="#fff"/></mask><g mask="url(#a)"><path fill="#fff" d="M-7.481 69.21L95.742-77.283l51.306 36.152L43.825 105.362z"/></g></svg>